<?xml version="1.0" standalone="no"?>
<!DOCTYPE svg PUBLIC "-//W3C//DTD SVG 20010904//EN"
 "http://www.w3.org/TR/2001/REC-SVG-20010904/DTD/svg10.dtd">
<svg version="1.0" xmlns="http://www.w3.org/2000/svg"
 width="500.000000pt" height="500.000000pt" viewBox="0 0 500.000000 500.000000"
 preserveAspectRatio="xMidYMid meet">
<metadata>
Created by potrace 1.14, written by Peter Selinger 2001-2017
</metadata>
<g transform="translate(0.000000,500.000000) scale(0.100000,-0.100000)"
fill="#000000" stroke="none">
<path d="M1725 4683 c-128 -52 -225 -170 -286 -350 -24 -70 -33 -118 -41 -236
-17 -215 -2 -383 52 -597 46 -181 46 -175 15 -405 -8 -60 -18 -169 -21 -241
l-7 -131 -61 -23 c-136 -54 -305 -191 -385 -314 -118 -181 -166 -431 -125
-660 34 -196 147 -334 294 -361 36 -6 165 18 294 56 75 22 168 29 228 16 l36
-8 7 -67 c32 -338 130 -655 270 -871 56 -87 107 -134 178 -165 71 -32 114 -33
158 -3 32 22 36 22 83 9 40 -12 58 -12 108 -2 67 15 166 71 198 113 63 81 136
240 200 438 50 155 135 502 156 637 l6 44 82 -9 c44 -4 133 -8 196 -8 106 0
120 2 177 29 94 43 141 100 191 228 23 59 42 109 42 112 0 14 68 116 107 161
89 102 121 219 89 328 -26 89 -119 171 -239 211 -16 5 -16 9 8 43 14 21 25 41
25 45 0 4 14 38 31 75 17 38 45 111 61 163 24 78 29 108 25 165 -10 168 -118
257 -230 191 -54 -31 -87 -83 -117 -186 -49 -167 -92 -293 -107 -318 -30 -49
-87 -102 -108 -102 -12 0 -44 7 -72 15 l-51 15 4 83 c8 143 4 132 115 278 157
208 266 428 344 693 63 215 79 374 50 474 -30 101 -136 141 -247 93 -63 -27
-108 -87 -174 -232 -32 -71 -62 -129 -66 -129 -16 0 -28 42 -28 102 0 78 -26
279 -42 328 -17 53 -50 100 -75 106 -34 9 -136 -43 -254 -131 -89 -66 -108
-76 -134 -71 -16 3 -73 10 -125 16 -52 7 -119 15 -149 18 l-55 7 -35 70 c-81
160 -135 225 -188 225 -42 0 -100 -51 -156 -135 -22 -33 -36 -51 -32 -40 15
42 18 136 5 160 -30 57 -143 81 -225 48z m36 -78 c-36 -39 -53 -75 -35 -75 4
0 33 25 66 55 56 52 77 63 91 48 4 -3 -16 -30 -43 -59 -80 -85 -63 -103 26
-28 30 26 54 43 54 38 0 -5 -7 -34 -16 -64 -8 -30 -19 -93 -23 -141 -13 -119
-53 -232 -106 -291 -52 -57 -120 -191 -141 -278 -41 -164 -3 -383 88 -510 122
-170 382 -280 740 -314 222 -22 395 7 536 90 109 64 196 180 254 340 31 84 33
96 33 229 0 121 -3 149 -23 203 l-23 64 54 111 c29 62 60 128 67 147 19 49 57
98 94 121 45 27 49 24 26 -21 -22 -44 -26 -90 -7 -90 6 0 25 24 40 53 46 87
51 92 87 77 34 -14 37 -22 14 -40 -8 -8 -24 -32 -35 -54 -44 -92 -3 -85 56 9
l19 30 7 -25 c38 -137 -63 -539 -207 -820 -63 -124 -125 -223 -213 -340 -101
-135 -96 -120 -95 -325 1 -116 6 -208 16 -258 l15 -78 -28 -14 c-28 -15 -56
-20 -309 -52 -231 -30 -548 -19 -825 28 -108 18 -416 114 -474 147 -17 9 -32
26 -35 37 -18 64 -1 472 25 620 18 101 13 163 -30 335 -132 526 -43 978 219
1115 75 40 89 32 41 -20z m436 -90 c29 -43 65 -103 80 -133 37 -73 63 -92 127
-92 28 0 101 -7 161 -15 169 -23 161 -24 272 58 109 81 155 111 196 126 24 10
28 8 44 -22 26 -51 42 -142 49 -282 5 -114 9 -138 34 -190 76 -163 96 -314 62
-455 -26 -103 -98 -250 -151 -307 -56 -60 -134 -107 -229 -137 -91 -29 -244
-49 -306 -42 -185 23 -233 31 -321 52 -168 39 -292 96 -377 171 -109 96 -158
210 -166 384 -7 163 38 298 141 431 28 36 57 90 76 142 35 98 100 232 144 295
37 54 87 103 101 98 6 -2 35 -39 63 -82z m1557 -1257 c14 -6 35 -31 47 -56 31
-63 29 -153 -6 -262 -32 -101 -132 -310 -147 -310 -15 0 -242 43 -247 47 -2 1
12 20 32 42 19 22 40 49 47 60 14 28 67 198 86 281 22 93 60 168 98 191 36 22
55 24 90 7z m-2386 -744 c63 -40 66 -131 6 -183 -57 -50 -145 -36 -179 29 -58
112 66 221 173 154z m2524 -75 c45 -60 46 -168 2 -188 -123 -56 -229 96 -133
191 24 24 35 29 70 26 31 -2 47 -10 61 -29z m-623 -15 c55 -46 60 -121 11
-173 -52 -56 -152 -46 -185 20 -21 40 -19 47 18 54 38 9 89 33 99 49 4 6 8 26
8 44 0 39 9 40 49 6z m-1273 -278 c40 -40 46 -78 22 -139 -14 -35 -55 -57
-109 -57 -34 0 -47 6 -76 35 -33 33 -35 38 -31 87 7 70 47 108 114 108 39 0
51 -5 80 -34z m700 -323 c50 -32 66 -118 31 -163 -22 -30 -61 -50 -95 -50
-132 0 -169 172 -48 226 36 16 75 12 112 -13z m-1427 -47 c67 -35 82 -121 31
-180 -37 -41 -84 -53 -134 -32 -52 22 -71 59 -67 135 1 12 16 38 35 57 38 38
86 45 135 20z m1766 -228 c-3 -13 -16 -77 -30 -143 -31 -143 -103 -414 -145
-542 -34 -106 -133 -322 -170 -371 -23 -31 -107 -92 -126 -92 -6 0 -8 16 -6
36 4 30 2 35 -13 32 -11 -2 -24 -20 -33 -45 -20 -61 -44 -58 -35 3 8 57 -11
58 -42 1 -33 -60 -46 -45 -22 26 19 57 21 93 26 447 3 212 9 390 13 396 4 7
20 15 35 19 39 9 148 71 188 107 19 16 49 40 67 54 18 13 43 30 54 39 38 28
128 54 187 55 54 0 57 -1 52 -22z m-1160 -180 c176 -75 337 -108 452 -92 l68
9 -3 -105 c-2 -58 -7 -233 -11 -390 -5 -173 -12 -296 -19 -313 l-12 -28 -29
33 c-23 25 -32 30 -42 21 -9 -9 -7 -19 10 -47 12 -19 27 -36 33 -38 7 -3 9
-12 4 -24 -7 -17 -11 -15 -45 23 -20 24 -42 43 -49 43 -21 0 -13 -37 14 -69
23 -27 24 -31 7 -31 -33 0 -118 47 -154 86 -139 149 -269 492 -319 848 -6 38
-13 80 -17 94 -5 22 -3 24 18 17 13 -4 56 -21 94 -37z"/>
<path d="M2090 4489 c0 -14 54 -174 71 -211 7 -16 16 -28 21 -28 40 0 -4 181
-57 234 -19 19 -35 21 -35 5z"/>
<path d="M2980 4364 c-79 -71 -133 -164 -96 -164 25 0 156 153 156 183 0 26
-16 20 -60 -19z"/>
<path d="M2049 3890 c-10 -34 -10 -49 5 -96 21 -67 57 -94 128 -94 55 0 97 30
128 91 40 78 9 110 -37 39 -38 -58 -64 -80 -92 -80 -57 0 -91 53 -91 143 0 51
-25 49 -41 -3z"/>
<path d="M2660 3824 c-29 -76 39 -184 115 -184 72 0 135 64 135 138 0 35 -22
59 -37 40 -5 -7 -15 -32 -22 -55 -21 -74 -93 -90 -130 -31 -7 12 -16 41 -20
66 -7 53 -27 65 -41 26z"/>
<path d="M2403 3694 c-3 -9 2 -32 12 -51 17 -30 17 -41 7 -90 -6 -31 -13 -58
-16 -60 -5 -6 -62 24 -99 50 -21 16 -30 18 -39 9 -18 -18 19 -62 78 -92 39
-20 62 -25 119 -24 77 1 145 24 145 49 0 24 -22 27 -63 10 -20 -8 -50 -15 -67
-15 -25 0 -30 3 -26 18 3 9 8 35 12 57 3 22 15 55 25 73 35 61 23 82 -47 82
-23 0 -37 -6 -41 -16z"/>
<path d="M1753 3694 c-32 -14 -4 -22 97 -26 60 -2 112 -7 116 -10 3 -3 -1 -16
-8 -28 -12 -20 -20 -21 -103 -18 -75 2 -90 0 -90 -12 0 -10 12 -16 40 -18 102
-6 123 -12 118 -32 -4 -14 0 -20 13 -21 11 -1 -3 -7 -31 -14 -114 -28 -135
-36 -135 -50 0 -20 11 -19 108 6 45 11 90 18 100 16 12 -3 11 -5 -6 -6 -58 -3
28 -71 90 -71 82 0 138 53 138 132 0 93 -62 149 -162 148 -29 -1 -102 1 -163
4 -60 3 -116 3 -122 0z m427 -79 c0 -3 -18 4 -40 15 -22 11 -40 23 -40 25 0 3
18 -4 40 -15 22 -11 40 -23 40 -25z m-49 -16 c33 -15 37 -19 15 -14 -16 3 -39
13 -50 21 -29 20 -16 17 35 -7z m-138 -36 c-7 -2 -19 -2 -25 0 -7 3 -2 5 12 5
14 0 19 -2 13 -5z m130 -10 c-13 -2 -33 -2 -45 0 -13 2 -3 4 22 4 25 0 35 -2
23 -4z m-60 -60 c-7 -2 -21 -2 -30 0 -10 3 -4 5 12 5 17 0 24 -2 18 -5z"/>
<path d="M2739 3577 c-42 -28 -59 -60 -59 -115 0 -62 23 -100 76 -124 50 -22
88 -18 143 13 33 20 34 20 108 -2 55 -17 77 -19 85 -11 13 13 -26 32 -105 54
-36 9 -43 15 -39 31 5 18 11 19 92 13 62 -5 90 -4 95 4 12 19 -1 23 -118 36
-61 6 -101 12 -88 13 17 1 21 5 17 17 -3 9 -6 18 -6 20 0 2 -19 2 -42 -1 l-43
-5 35 11 c19 6 89 11 154 11 100 0 117 3 102 13 -37 27 -171 27 -306 0 -14 -2
-7 1 15 9 38 12 39 13 18 24 -36 19 -97 14 -134 -11z m108 -63 c-3 -3 -12 -4
-19 -1 -8 3 -5 6 6 6 11 1 17 -2 13 -5z m48 -19 c6 -1 -23 -4 -63 -6 -55 -3
-69 -1 -57 7 13 10 86 9 120 -1z m-50 -45 c-3 -5 9 -11 26 -15 17 -4 28 -9 26
-12 -5 -5 -117 26 -129 36 -4 4 13 4 37 3 25 -2 43 -8 40 -12z m78 -7 c-7 -2
-21 -2 -30 0 -10 3 -4 5 12 5 17 0 24 -2 18 -5z m-122 -41 c-7 -2 -18 1 -23 6
-8 8 -4 9 13 5 13 -4 18 -8 10 -11z"/>
<path d="M3933 3918 c-6 -7 -21 -44 -34 -81 -21 -62 -27 -70 -61 -84 -42 -17
-58 -38 -58 -76 0 -30 22 -49 56 -49 34 0 54 21 82 87 12 30 23 55 25 56 10 3
127 -15 127 -20 -1 -33 -15 -51 -40 -51 -32 0 -80 -41 -80 -68 0 -31 25 -55
58 -55 58 0 91 49 132 196 17 61 19 81 10 93 -13 15 -158 64 -189 64 -10 0
-23 -6 -28 -12z m116 -64 c40 -11 51 -19 47 -30 -3 -9 -6 -17 -6 -18 0 -4 -96
11 -119 19 -13 4 -17 12 -14 25 6 24 23 25 92 4z m-199 -164 c0 -5 -4 -10 -10
-10 -5 0 -10 5 -10 10 0 6 5 10 10 10 6 0 10 -4 10 -10z m185 -50 c-3 -5 -11
-10 -16 -10 -6 0 -7 5 -4 10 3 6 11 10 16 10 6 0 7 -4 4 -10z"/>
<path d="M1005 3507 l-27 -23 21 -116 c12 -65 21 -121 21 -126 0 -5 -11 -14
-24 -21 -27 -15 -46 -50 -46 -85 0 -27 34 -66 58 -66 28 0 63 30 79 67 13 32
12 42 -10 121 -41 144 -40 138 -9 151 15 6 52 16 81 21 83 15 91 40 25 77 -54
31 -133 31 -169 0z m65 -41 c-38 -13 -45 -13 -35 3 3 6 21 11 38 10 l32 0 -35
-13z m-44 -324 c-15 -15 -16 -15 -16 4 0 28 24 52 28 28 2 -9 -3 -24 -12 -32z"/>
</g>
</svg>
